<?xml version="1.0" encoding="UTF-8" standalone="no"?>
<svg
   version="1.1"
   id="Map"
   class="gen-by-synoptic-designer"
   viewBox="0 0 334084 289444"
   xml:space="preserve"
   sodipodi:docname="hB.svg"
   inkscape:version="1.3.2 (091e20e, 2023-11-25)"
   inkscape:export-filename="../Documents/CODING/Projects/Websites/body-visualizer/body-visualizer/src/assets/hB.svg"
   inkscape:export-xdpi="96"
   inkscape:export-ydpi="96"
   width="334084"
   height="289444"
   xmlns:inkscape="http://www.inkscape.org/namespaces/inkscape"
   xmlns:sodipodi="http://sodipodi.sourceforge.net/DTD/sodipodi-0.dtd"
   xmlns="http://www.w3.org/2000/svg"
   xmlns:svg="http://www.w3.org/2000/svg"><defs
     id="defs19" /><sodipodi:namedview
     id="namedview19"
     pagecolor="#ffffff"
     bordercolor="#000000"
     borderopacity="0.25"
     inkscape:showpageshadow="2"
     inkscape:pageopacity="0.0"
     inkscape:pagecheckerboard="0"
     inkscape:deskcolor="#d1d1d1"
     inkscape:zoom="2.6297578"
     inkscape:cx="352.88421"
     inkscape:cy="187.08947"
     inkscape:window-width="1920"
     inkscape:window-height="969"
     inkscape:window-x="0"
     inkscape:window-y="25"
     inkscape:window-maximized="0"
     inkscape:current-layer="Map" /><polygon
     id="Left_Pec_Mayoris"
     title=""
     points="159,156 183,150 190,130 169,116 144,116 142,149 " /><polygon
     id="Right_Pec_Mayoris"
     title=""
     points="117,156 135,149 134,117 109,117 90,128 94,150 " /><polygon
     id="Left_Rectus_Abdominis"
     title=""
     points="160,205 160,241 155,255 152,269 143,278 142,221 141,179 142,154 155,159 159,171 " /><polygon
     id="Left_Oblique"
     title=""
     points="161,160 164,171 165,218 178,207 180,185 185,169 182,154 " /><polygon
     id="Right_Oblique"
     title=""
     points="93,169 96,154 117,159 113,169 113,219 100,206 98,190 " /><polygon
     id="Right_Biceps_Brachii_Long_Head"
     title=""
     points="73,176 88,146 85,135 67,151 58,181 61,189 " /><polygon
     id="Left_Neck"
     title=""
     points="141,110 168,112 190,124 187,104 172,100 160,89 153,72 141,96 " /><polygon
     id="Right_Neck"
     title=""
     points="106,100 118,88 126,74 137,97 136,110 110,111 88,124 91,105 " /><polygon
     id="Left_Deltoids_Front"
     title=""
     points="211,115 203,107 191,103 194,119 192,130 209,144 212,131 " /><polygon
     id="Right_Deltoids_Front"
     title=""
     points="66,131 67,114 77,105 87,105 83,120 86,130 69,144 " /><polygon
     id="Head_Front"
     title=""
     points="120,62 130,71 139,76 151,69 158,61 162,39 157,20 139,14 121,21 115,43 " /><polygon
     id="GROINS"
     title=""
     points="164,284 169,259 176,245 164,241 156,270 146,284 150,320 " /><polygon
     id="polygon1"
     title=""
     points="120,298 116,291 114,277 110,265 102,244 114,240 119,257 124,272 134,285 127,321 " /><polygon
     id="QUADS"
     title=""
     points="108,327 101,350 93,339 89,308 86,287 89,261 96,246 102,256 108,279 " /><polygon
     id="polygon2"
     title=""
     points="118,304 126,331 122,345 115,372 106,373 104,357 112,331 111,289 " /><polygon
     id="Right_Knee_Front"
     title=""
     points="104,375 106,384 103,398 90,398 84,388 84,375 91,367 100,357 102,365 " /><polygon
     id="Left_Tibialis_Anterior"
     title=""
     points="205,409 212,425 209,474 212,493 200,493 192,407 197,390 " /><polygon
     id="Left_Shin"
     title=""
     points="177,402 174,412 174,419 178,448 195,492 188,404 " /><polygon
     id="Right_Shin"
     title=""
     points="105,423 103,436 103,447 96,460 92,473 83,491 84,474 86,456 87,444 88,430 90,416 91,403 104,402 105,412 " /><polygon
     id="Right_Tibialis_Anterior"
     title=""
     points="86,407 81,392 78,400 72,410 68,425 71,475 68,493 78,491 85,418 " /><polygon
     id="Right_Brachioradialis"
     title=""
     points="53,186 57,196 64,194 28,253 17,259 32,231 42,198 " /><polygon
     id="polygon3"
     title=""
     points="80,349 80,326 83,294 89,341 97,353 82,371 " /><polygon
     id="Left_Knee_Front"
     title=""
     points="194,387 188,399 176,398 171,384 178,357 194,376 " /><polygon
     id="polygon4"
     title=""
     points="198,358 195,371 180,353 189,341 193,291 198,318 " /><polygon
     id="polygon5"
     title=""
     points="181,246 189,262 191,288 184,340 177,351 170,329 169,287 172,273 175,259 " /><polygon
     id="polygon6"
     title=""
     points="166,293 167,333 174,356 171,373 163,371 153,330 " /><polygon
     id="Right_Rectus_Abdominis"
     title=""
     points="137,179 136,221 135,277 126,268 117,238 117,206 118,172 124,158 136,154 " /><polygon
     id="Left_Brachioradialis"
     title=""
     points="213,193 250,255 262,260 246,233 237,201 224,185 221,194 " /><polygon
     id="Left_Biceps_Brachii_Short_Head"
     title=""
     points="203,192 207,186 202,179 187,150 187,165 " /><polygon
     id="Left_Flexor_Digitorum"
     title=""
     points="214,220 226,234 243,262 249,258 207,191 207,204 " /><polygon
     id="Left_Biceps_Brachii_Long_Head"
     title=""
     points="204,176 217,190 220,183 210,150 192,135 189,148 " /><polygon
     id="Right_Flexor_Digitorum"
     title=""
     points="63,220 70,203 69,190 29,256 34,262 50,236 " /><polygon
     id="Right_Biceps_Brachii_Short_Head"
     title=""
     points="90,163 73,193 72,184 90,150 " /><polygon
     id="Head_Back"
     title=""
     points="425,19 424,36 435,53 460,53 468,38 469,17 460,9 448,6 437,8 " /><polygon
     id="Left_Trapezius"
     title=""
     points="440,96 441,158 419,131 412,102 402,92 421,84 432,70 434,57 441,57 " /><polygon
     id="Right_Trapezius"
     title=""
     points="462,70 472,83 491,92 481,101 474,131 452,158 454,96 452,57 460,57 " /><polygon
     id="Left_Deltoids_Back"
     title=""
     points="370,110 372,132 386,122 393,115 398,93 383,98 " /><polygon
     id="Right_Deltoids_Back"
     title=""
     points="523,111 521,132 505,121 499,112 496,93 513,99 " /><polygon
     id="Left_Latissimus_Dorsi"
     title=""
     points="396,136 409,183 440,173 440,162 415,133 408,103 402,97 395,121 " /><polygon
     id="Right_Latissimus_Dorsi"
     title=""
     points="497,138 484,183 453,173 453,162 478,134 485,104 491,97 498,122 " /><path
     d="m 392.47852,121.80273 -21,14 -8,39 5,22 12,-42 12,-19 z"
     id="path21" /><polygon
     id="Right_Triceps_Lateral-8"
     title=""
     points="501,137 502,124 522,137 531,178 525,199 512,154 "
     transform="translate(0.15526318,-0.67631575)" /><polygon
     id="Right_Triceps_Medial-4"
     title=""
     points="500,168 500,143 510,158 518,188 509,183 "
     transform="translate(1.775,1.4789474)" /><polygon
     id="Left_Erector_Spinae"
     title=""
     points="412,202 445,246 439,201 441,177 410,187 " /><polygon
     id="Right_Erector_Spinae"
     title=""
     points="481,202 448,246 454,203 452,177 483,187 " /><polygon
     id="Right_Extensor_Digitorum"
     title=""
     points="548,227 564,256 555,251 536,216 527,203 532,184 543,202 " /><polygon
     id="Right_Flexor_Carpi"
     title=""
     points="515,205 543,250 548,262 551,252 520,193 511,189 " /><polygon
     id="Left_Extensor_Digitorum"
     title=""
     points="345,226 329,256 338,251 358,214 366,201 361,184 350,203 " /><polygon
     id="polygon7"
     title=""
     points="378,204 351,248 345,261 341,252 373,193 381,189 " /><polygon
     id="GLUTES"
     title=""
     points="399,285 403,302 440,291 445,276 434,240 400,261 " /><polygon
     id="polygon8"
     title=""
     points="452,290 489,302 493,286 492,261 459,239 449,275 " /><polygon
     id="polygon9"
     title=""
     points="426,301 435,345 443,325 444,310 442,295 434,295 " /><polygon
     id="polygon10"
     title=""
     points="468,302 458,345 451,326 449,310 451,294 460,296 " /><polygon
     id="HAMSTRINGS"
     title=""
     points="415,302 412,324 410,359 398,378 397,351 394,338 393,315 397,293 402,310 " /><polygon
     id="polygon11"
     title=""
     points="479,302 483,327 485,359 496,378 497,353 500,340 502,316 497,292 492,309 " /><polygon
     id="polygon12"
     title=""
     points="424,398 414,365 416,324 420,301 433,349 " /><polygon
     id="polygon13"
     title=""
     points="480,366 470,398 461,350 474,301 478,326 " /><polygon
     id="Left_Knee_Back"
     title=""
     points="408,397 417,388 410,366 402,380 " /><polygon
     id="Right_Knee_Back"
     title=""
     points="486,397 492,380 485,367 477,389 " /><polygon
     id="CALVES"
     title=""
     points="387,428 385,459 389,469 396,460 399,429 404,408 404,398 398,383 396,399 " /><polygon
     id="polygon14"
     title=""
     points="407,410 402,430 400,457 409,476 420,454 421,403 417,394 412,400 " /><polygon
     id="polygon15"
     title=""
     points="474,454 485,475 495,457 491,428 486,406 477,394 473,402 " /><polygon
     id="polygon16"
     title=""
     points="507,427 509,459 504,468 499,461 495,428 489,401 495,383 499,402 " /><polygon
     id="polygon17"
     title=""
     points="408,480 401,523 396,508 392,472 396,466 400,466 " /><polygon
     id="polygon18"
     title=""
     points="502,472 498,507 494,522 487,481 493,466 498,466 " /><polygon
     id="PERONEALS"
     title=""
     points="390,528 387,518 390,484 395,521 " /><polygon
     id="polygon19"
     title=""
     points="503,528 508,517 504,482 499,521 " /><path
     d="m 392.43164,144.5 -9.31641,13.5 -8.74609,31.18164 8.92188,-5.55273 8.57031,-14.79297 z"
     id="path20" /></svg>
